<svg xmlns="http://www.w3.org/2000/svg" width="24.823" height="16.866" viewBox="0 0 24.823 16.866">
  <g id="Cart_Ico" data-name="Cart Ico" transform="translate(0.411 0.455)">
    <g id="Cart_Ico-2" data-name="Cart Ico">
      <path id="Path_49" data-name="Path 49" d="M817.64,5064.118h-3.459c-.019-.809-.049-.334-.1-.387l-4.286-4.145a.449.449,0,0,0-.606-.051.619.619,0,0,0,0,.749l3.875,3.833H799.486l3.876-3.859a.513.513,0,0,0,0-.672.449.449,0,0,0-.606-.051l-4.286,4.22c-.057.053-.087-.447-.1.362H794.5a.4.4,0,1,0,0,.809H796.1l2.25,10.191a.423.423,0,0,0,.419.322h15a.423.423,0,0,0,.421-.327l2.076-10.186h1.371a.4.4,0,1,0,0-.809Zm-4.221,10.513h-14.3l-2.142-9.7H815.4Z" transform="translate(-794.069 -5059.439)" fill="none" stroke="#000" stroke-miterlimit="10" stroke-width="0.823"/>
    </g>
    <path id="Color_Overlay" data-name="Color Overlay" d="M4.542,16.182a.413.413,0,0,1-.405-.326L1.965,5.549H.413a.409.409,0,1,1,0-.818H4.148c.012-.576.03-.5.058-.417.012.033.026.067.042.051L8.387.1a.421.421,0,0,1,.585.051.538.538,0,0,1,0,.68L5.23,4.731H18.336L14.594.854a.647.647,0,0,1,0-.757.421.421,0,0,1,.585.051l4.137,4.192c.015.015.029-.014.041-.044.029-.073.047-.146.06.435h3.34a.409.409,0,1,1,0,.818H21.435l-2.005,10.3a.411.411,0,0,1-.406.331Zm.336-.818H18.682l1.91-9.814H2.809Z" transform="translate(0 0)"/>
  </g>
</svg>
