<svg xmlns="http://www.w3.org/2000/svg" width="24" height="22" viewBox="0 0 24 22">
  <g id="Icon_Catalog" transform="translate(-3 2)">
    <path id="catalog" d="M4.689,11.9,6,21.9c0,.3.437.6.765.6H22.3c.328,0,.765-.3.765-.6l1.312-10a.383.383,0,0,0-.437-.4H5.127c-.328,0-.437.1-.437.4ZM2.5,12.1A2.371,2.371,0,0,1,5.017,9.5H23.936a2.371,2.371,0,0,1,2.515,2.6l-1.312,10a2.969,2.969,0,0,1-2.953,2.4H6.767a2.961,2.961,0,0,1-2.953-2.4L2.5,12.1ZM6.876,8a1,1,0,1,1,0-2h15.31a1,1,0,1,1,0,2ZM9.61,4.5a1,1,0,1,1,0-2h9.842a1,1,0,1,1,0,2Z" transform="translate(0.523 -4.5)" fill="#fff"/>
  </g>
</svg>
