<svg xmlns="http://www.w3.org/2000/svg" width="24" height="24" viewBox="0 0 24 24">
  <path id="category" d="M21.388,23.826,6.135,8.573A1.723,1.723,0,0,1,8.573,6.136L23.825,21.389a.594.594,0,0,1,0,.841l-1.6,1.6a.593.593,0,0,1-.841,0ZM10.211,10.968l11.6,11.6.757-.757-11.6-11.6ZM6.976,6.977a.536.536,0,0,0,0,.757l2.395,2.395.757-.757L7.733,6.977a.536.536,0,0,0-.757,0Zm.114,7.8V12.21a.594.594,0,0,1,1.189,0v2.567a.594.594,0,0,1-1.189,0ZM2.25,13.12a.594.594,0,0,1,0-.841l1.815-1.814a.594.594,0,0,1,.84.84L3.091,13.12a.6.6,0,0,1-.841,0Zm9.959-4.84a.594.594,0,0,1,0-1.189h2.566a.594.594,0,1,1,0,1.189ZM.593,8.28a.594.594,0,0,1,0-1.189H3.16a.594.594,0,0,1,0,1.189Zm9.871-3.374a.593.593,0,0,1,0-.84l1.814-1.815a.594.594,0,0,1,.841.841L11.3,4.906a.592.592,0,0,1-.84,0Zm-6.4,0L2.25,3.092a.594.594,0,1,1,.841-.841L4.905,4.066a.594.594,0,1,1-.841.84ZM7.09,3.161V.594a.594.594,0,0,1,1.189,0V3.161a.594.594,0,0,1-1.189,0Z" transform="translate(0.001)" fill="#fff"/>
</svg>
