<svg xmlns="http://www.w3.org/2000/svg" width="24" height="24" viewBox="0 0 24 24">
  <g id="Icon_Collection" transform="translate(1.674 3)">
    <path id="collection" d="M.86,24a.51.51,0,0,1-.4-.2.649.649,0,0,1-.135-.464l1.586-17.2A1.7,1.7,0,0,1,3.526,4.5H7.782V2.226A2.117,2.117,0,0,1,9.764,0h5.125A2.117,2.117,0,0,1,16.87,2.226V4.5h4.256a1.7,1.7,0,0,1,1.611,1.631l1.586,17.2a.648.648,0,0,1-.135.464.51.51,0,0,1-.4.2ZM21.7,22.8h1.5l-.154-1.674A2.334,2.334,0,0,0,21.7,22.8ZM2.978,6.259,1.719,19.908A3.487,3.487,0,0,1,4.041,22.8H20.611a3.487,3.487,0,0,1,2.322-2.892L21.675,6.259a.578.578,0,0,0-.548-.555H3.526A.578.578,0,0,0,2.978,6.259ZM1.453,22.8h1.5a2.334,2.334,0,0,0-1.343-1.674ZM8.85,2.226V4.5H15.8V2.226A.975.975,0,0,0,14.889,1.2H9.764A.975.975,0,0,0,8.85,2.226ZM5.992,21.774a.651.651,0,0,1-.14-.572l.642-2.843a.622.622,0,0,1,.14-.277l8.99-10.1a1.729,1.729,0,0,1,2.644,0,2.29,2.29,0,0,1,0,2.97l-8.99,10.1a.523.523,0,0,1-.246.157L6.5,21.931a.481.481,0,0,1-.131.018A.506.506,0,0,1,5.992,21.774ZM7.108,20.52l.75-.214-.56-.629Zm.659-2.013L8.9,19.78,16.72,11,15.587,9.725ZM16.38,8.834l-.038.042,1.133,1.273.038-.042a.981.981,0,0,0,0-1.273.741.741,0,0,0-1.133,0Z" transform="translate(-2 -3)" fill="#fff"/>
  </g>
</svg>
