<svg width="36" height="36" viewBox="0 0 36 36" fill="none" xmlns="http://www.w3.org/2000/svg">
<g clip-path="url(#clip0_383_25)">
<path d="M36 18.1095C36 8.169 27.9405 0.109497 18 0.109497C8.0595 0.109497 0 8.169 0 18.1095C0 27.0945 6.582 34.5405 15.1875 35.8905V23.313H10.617V18.108H15.1875V14.145C15.1875 9.6345 17.8755 7.1415 21.987 7.1415C23.955 7.1415 26.016 7.494 26.016 7.494V11.9235H23.745C21.5085 11.9235 20.811 13.311 20.811 14.7345V18.1095H25.803L25.005 23.3145H20.811V35.892C29.418 34.5405 36 27.093 36 18.1095Z" fill="#1877F2"/>
</g>
<defs>
<clipPath id="clip0_383_25">
<rect width="36" height="36" fill="white"/>
</clipPath>
</defs>
</svg>
