<svg xmlns="http://www.w3.org/2000/svg" width="24" height="24" viewBox="0 0 24 24">
  <g id="Group_9202" data-name="Group 9202" transform="translate(0 0)">
    <path id="Path_2" data-name="Path 2" d="M22.772,9.482,21.087,9.2a9.512,9.512,0,0,0-.677-1.634L21.4,6.173a1.478,1.478,0,0,0-.16-1.91L19.748,2.768A1.472,1.472,0,0,0,18.7,2.332a1.457,1.457,0,0,0-.857.276L16.449,3.6a9.413,9.413,0,0,0-1.695-.7l-.281-1.665A1.481,1.481,0,0,0,13.01,0H10.9A1.481,1.481,0,0,0,9.435,1.239l-.291,1.7a9.277,9.277,0,0,0-1.629.687L6.137,2.638a1.481,1.481,0,0,0-1.91.16l-1.5,1.494a1.484,1.484,0,0,0-.16,1.91l1,1.409A9.291,9.291,0,0,0,2.9,9.251l-1.664.281A1.481,1.481,0,0,0,0,11v2.111A1.481,1.481,0,0,0,1.238,14.57l1.7.291a9.278,9.278,0,0,0,.687,1.629l-.988,1.374a1.478,1.478,0,0,0,.16,1.91L4.3,21.269a1.472,1.472,0,0,0,1.048.436,1.457,1.457,0,0,0,.857-.276l1.409-1a9.484,9.484,0,0,0,1.584.652l.281,1.685A1.481,1.481,0,0,0,10.94,24h2.116a1.481,1.481,0,0,0,1.464-1.238l.286-1.685a9.512,9.512,0,0,0,1.634-.677l1.389.993a1.472,1.472,0,0,0,.862.276h0a1.472,1.472,0,0,0,1.048-.436l1.494-1.494a1.484,1.484,0,0,0,.16-1.91L20.4,16.436a9.444,9.444,0,0,0,.677-1.634l1.685-.281A1.481,1.481,0,0,0,24,13.056V10.946A1.463,1.463,0,0,0,22.772,9.482Zm-.115,3.575a.13.13,0,0,1-.11.13l-2.106.351a.673.673,0,0,0-.541.5,8.026,8.026,0,0,1-.872,2.1.678.678,0,0,0,.03.737l1.238,1.745a.137.137,0,0,1-.015.17l-1.494,1.494a.127.127,0,0,1-.1.04.123.123,0,0,1-.075-.025l-1.74-1.238a.677.677,0,0,0-.737-.03,8.026,8.026,0,0,1-2.1.872.665.665,0,0,0-.5.541l-.356,2.106a.13.13,0,0,1-.13.11H10.945a.13.13,0,0,1-.13-.11l-.351-2.106a.673.673,0,0,0-.5-.541,8.334,8.334,0,0,1-2.056-.842.694.694,0,0,0-.341-.09.66.66,0,0,0-.391.125L5.425,20.341a.149.149,0,0,1-.075.025.134.134,0,0,1-.1-.04L3.76,18.832a.136.136,0,0,1-.015-.17l1.233-1.73a.686.686,0,0,0,.03-.742,7.95,7.95,0,0,1-.882-2.1.687.687,0,0,0-.541-.5l-2.121-.361a.13.13,0,0,1-.11-.13V11a.13.13,0,0,1,.11-.13l2.091-.351a.678.678,0,0,0,.546-.5,8.018,8.018,0,0,1,.857-2.106.669.669,0,0,0-.035-.732L3.675,5.421a.137.137,0,0,1,.015-.17L5.184,3.756a.127.127,0,0,1,.1-.04.123.123,0,0,1,.075.025l1.73,1.233A.686.686,0,0,0,7.826,5a7.95,7.95,0,0,1,2.1-.882.687.687,0,0,0,.5-.541l.361-2.121a.13.13,0,0,1,.13-.11H13.02a.13.13,0,0,1,.13.11L13.5,3.551A.678.678,0,0,0,14,4.1a8.138,8.138,0,0,1,2.151.882.678.678,0,0,0,.737-.03l1.73-1.243a.149.149,0,0,1,.075-.025.134.134,0,0,1,.1.04l1.494,1.494a.136.136,0,0,1,.015.17l-1.238,1.74a.677.677,0,0,0-.03.737,8.026,8.026,0,0,1,.872,2.1.665.665,0,0,0,.541.5l2.106.356a.13.13,0,0,1,.11.13v2.111Z" transform="translate(0 -0.001)"/>
    <path id="Path_1" data-name="Path 1" d="M141.279,136a5.179,5.179,0,1,0,5.179,5.179A5.182,5.182,0,0,0,141.279,136Zm0,9a3.825,3.825,0,1,1,3.825-3.825A3.828,3.828,0,0,1,141.279,145.005Z" transform="translate(-129.276 -129.183)"/>
  </g>
</svg>
