<svg width="36" height="36" viewBox="0 0 36 36" fill="none" xmlns="http://www.w3.org/2000/svg">
<g clip-path="url(#clip0_383_27)">
<path d="M35.6176 18.405C35.6176 17.22 35.5126 16.095 35.3326 15H18.3826V21.765H28.0876C27.6526 23.985 26.3776 25.86 24.4876 27.135V31.635H30.2776C33.6676 28.5 35.6176 23.88 35.6176 18.405Z" fill="#4285F4"/>
<path d="M18.3826 36C23.2426 36 27.3076 34.38 30.2776 31.635L24.4876 27.135C22.8676 28.215 20.8126 28.875 18.3826 28.875C13.6876 28.875 9.71263 25.71 8.28763 21.435H2.31763V26.07C5.27263 31.95 11.3476 36 18.3826 36Z" fill="#34A853"/>
<path d="M8.28757 21.435C7.91257 20.355 7.71757 19.2 7.71757 18C7.71757 16.8 7.92757 15.645 8.28757 14.565V9.92999H2.31757C1.08757 12.36 0.382568 15.09 0.382568 18C0.382568 20.91 1.08757 23.64 2.31757 26.07L8.28757 21.435Z" fill="#FBBC05"/>
<path d="M18.3826 7.125C21.0376 7.125 23.4076 8.04 25.2826 9.825L30.4126 4.695C27.3076 1.785 23.2426 0 18.3826 0C11.3476 0 5.27263 4.05 2.31763 9.93L8.28763 14.565C9.71263 10.29 13.6876 7.125 18.3826 7.125Z" fill="#EA4335"/>
</g>
<defs>
<clipPath id="clip0_383_27">
<rect width="36" height="36" fill="white"/>
</clipPath>
</defs>
</svg>
