<svg xmlns="http://www.w3.org/2000/svg" width="24" height="28" viewBox="0 0 24 28">
  <path id="Path" d="M54.507,10.95,43.139.255a.93.93,0,0,0-1.3.019L31.1,10.969a.985.985,0,0,0-.288.7V27.028a.96.96,0,0,0,.947.972h7.895a.96.96,0,0,0,.947-.972V19.9h4.421v7.13a.96.96,0,0,0,.947.972h7.895a.96.96,0,0,0,.947-.972V11.666A.984.984,0,0,0,54.507,10.95ZM52.919,26.055h-6v-7.13a.96.96,0,0,0-.947-.972H39.656a.96.96,0,0,0-.947.972v7.13h-6V12.078l9.808-9.769,10.4,9.786V26.055Z" transform="translate(-30.814 0)" fill="#fa4248"/>
</svg>
