<svg id="IconProduct" xmlns="http://www.w3.org/2000/svg" xmlns:xlink="http://www.w3.org/1999/xlink" width="24" height="24" viewBox="0 0 24 24">
  <defs>
    <clipPath id="clip-path">
      <rect id="Rectangle_86" data-name="Rectangle 86" width="24" height="24" fill="#fff"/>
    </clipPath>
  </defs>
  <path id="Path_43" data-name="Path 43" d="M7.211,120.341,8.3,122.756l.352,2.707v5.524l.323,2.89,1.467.256s.176-2.254.176-2.371V128.1l.381-2.3.235-2.085.675-.951L9.734,121.11l-1.966-1.171L6.8,119.5Z" transform="translate(-6.448 -110.756)" fill="#fff"/>
  <g id="Group_217" data-name="Group 217" transform="translate(0)">
    <g id="Group_216" data-name="Group 216">
      <g id="Group_214" data-name="Group 214" clip-path="url(#clip-path)">
        <path id="Path_44" data-name="Path 44" d="M346.069,280.271a.6.6,0,1,0-.469-.585.539.539,0,0,0,.469.585Zm0,0" transform="translate(-325.367 -258.678)" fill="#fff"/>
      </g>
      <g id="Group_215" data-name="Group 215" clip-path="url(#clip-path)">
        <path id="Path_45" data-name="Path 45" d="M.142,9.841A7.493,7.493,0,0,0,.688,11.7a13.766,13.766,0,0,1,1.221,5.532v7.229a.539.539,0,0,0,.469.585H4.256a.539.539,0,0,0,.469-.585V17.927a10.805,10.805,0,0,1,.7-3.834L5.47,14a23.631,23.631,0,0,1,5.164,8.539,3.386,3.386,0,0,0,3.016,2.5h3.838a23.183,23.183,0,0,0,4.4-.278c.54-.117,2.177-.468,2.177-2.063a6.048,6.048,0,0,0-1.526-3.337,6.69,6.69,0,0,0-3.714-2.4.412.412,0,0,0-.381.146,3.124,3.124,0,0,1-2.171.907,3.193,3.193,0,0,1-2.77-1.859.434.434,0,0,0-.029-.059l-3.133-5.576a42.732,42.732,0,0,0-6.877-9.19.393.393,0,0,0-.587,0,9.381,9.381,0,0,0-1.819,2.59,10.322,10.322,0,0,0-.91,5.9v.015Zm3.644,8.085v5.949H2.847V17.232c0-.176-.006-.366-.012-.563a15.94,15.94,0,0,0-1.473-5.9A18.214,18.214,0,0,1,4.731,13.28a11.433,11.433,0,0,0-.945,4.646ZM1.862,4.515A8.282,8.282,0,0,1,3.17,2.546a41.819,41.819,0,0,1,6.4,8.649l3.116,5.546a4.129,4.129,0,0,0,3.585,2.451,4.083,4.083,0,0,0,2.617-1.017,5.943,5.943,0,0,1,3,2.034,4.964,4.964,0,0,1,1.244,2.5c0,.5-.757.768-1.4.907a22.057,22.057,0,0,1-4.237.263H13.662A2.43,2.43,0,0,1,11.5,22.083,22.6,22.6,0,0,0,1.028,9.3a8.879,8.879,0,0,1,.833-4.785Zm0,0" transform="translate(-0.078 -1.112)" fill="#fff"/>
      </g>
    </g>
    <path id="Path_46" data-name="Path 46" d="M224.469,280.271h5.258a.6.6,0,0,0,0-1.171h-5.258a.6.6,0,0,0,0,1.171Zm0,0" transform="translate(-210.903 -258.678)" fill="#fff"/>
  </g>
</svg>
