<svg xmlns="http://www.w3.org/2000/svg" width="24" height="24" viewBox="0 0 24 24">
  <g id="User" transform="translate(0.739)" opacity="0.298">
    <g id="Group_9197" data-name="Group 9197" transform="translate(-0.739)">
      <path id="Path_3694" data-name="Path 3694" d="M20.485,15.515a11.954,11.954,0,0,0-4.56-2.86,6.938,6.938,0,1,0-7.85,0A12.019,12.019,0,0,0,0,24H1.875a10.125,10.125,0,0,1,20.25,0H24A11.922,11.922,0,0,0,20.485,15.515ZM12,12a5.062,5.062,0,1,1,5.063-5.062A5.068,5.068,0,0,1,12,12Z" transform="translate(0 0)"/>
    </g>
  </g>
</svg>
